<?xml version="1.0" encoding="UTF-8"?>
<!-- Created with Inkscape (http://www.inkscape.org/) -->
<svg width="25mm" height="25mm" version="1.1" viewBox="0 0 210 297" xmlns="http://www.w3.org/2000/svg">
 <path d="m149.13 87.719c-14.614 6.5199-31.488 6.3053-45.502 14.393-12.45-1.335-16.011 16.969-1.5634 16.363 18.045 4.3282 36.777 5.9337 54.046 13.219 11.078 5.7949 38.505 10.02 28.493 27.725-8.2251 13.53-27.544 6.5184-35.91 19.036-9.2868 16.827 18.511 12.588 27 8.5435 15.151-7.0369 30.463-13.369 46.377-18.56 9.5387-6.1936 21.36-8.2006 29.765-16.234 11.468-9.1395 3.609-23.358 6.1419-35.251 2.4116-9.8562-6.2267-14.839-13.915-9.2176-15.339 3.4988-29.76-3.994-42.513-11.523-13.074-6.1848-27.86-9.9615-42.343-7.5608-3.3614-0.28243-6.6985-0.84922-10.076-0.932zm-95.802 36.688c-14.732 8.0873-20.727 28.182-38.72 31.029-14.122 3.9582-29.032 1.6265-43.306 4.602-17.737-5.1323-20.052 18.977-16.224 30.806-2.282 10.878-0.94477 26.185 13.902 20.816 17.459 2.4752 29.76 17.746 47.257 20.369 13.231 2.471 26.93 5.4336 39.734 6.1134 14.678-7.499-2.6255-17.149-12.079-15.914-7.1597 2-22.41-11.291-8.4803-10.136 14.271 0.78507 28.5 4.8266 42.819 2.2904 7.9651 0.78817 32.062-1.4427 23.308-12.695-12.86-5.6177-27.546 5.4145-39.803-2.8345 4.1713-10.346 20.011-6.0121 27.098-14.436 6.5068-3.8876 23.78-17.468 7.5499-19.337-11.643 2.9424-19.238 15.096-32.043 15.201-8.2836 1.8608-10.718-4.0964-1.8654-6.2215 9.4674-6.3658 22.922-12.05 24.32-24.817-4.1792-13.014-19.135 4.6594-25.17 9.6013-7.5508 10.247-31.409 6.4085-19.387-8.033 6.6493-6.0132 20.627-16.988 11.089-26.403z" fill="#fff"/>
</svg>
