<?xml version="1.0" encoding="UTF-8" standalone="no"?>
<!-- Created with Inkscape (http://www.inkscape.org/) -->

<svg
   width="25mm"
   height="25mm"
   viewBox="0 0 210 297"
   version="1.1"
   id="svg5"
   inkscape:version="1.1 (c4e8f9e, 2021-05-24)"
   sodipodi:docname="ffpf.svg"
   xmlns:inkscape="http://www.inkscape.org/namespaces/inkscape"
   xmlns:sodipodi="http://sodipodi.sourceforge.net/DTD/sodipodi-0.dtd"
   xmlns="http://www.w3.org/2000/svg"
   xmlns:svg="http://www.w3.org/2000/svg">
  <sodipodi:namedview
     id="namedview7"
     pagecolor="#ffffff"
     bordercolor="#666666"
     borderopacity="1.0"
     inkscape:pageshadow="2"
     inkscape:pageopacity="0.0"
     inkscape:pagecheckerboard="0"
     inkscape:document-units="mm"
     showgrid="false"
     inkscape:zoom="3.6272742"
     inkscape:cx="70.162879"
     inkscape:cy="73.195459"
     inkscape:window-width="1312"
     inkscape:window-height="1081"
     inkscape:window-x="783"
     inkscape:window-y="49"
     inkscape:window-maximized="0"
     inkscape:current-layer="layer1" />
  <defs
     id="defs2" />
  <g
     inkscape:label="Layer 1"
     inkscape:groupmode="layer"
     id="layer1">
    <path
       style="fill:#000000;stroke-width:0.176389"
       id="path854"
       d="" />
    <path
       id="rect2720"
       style="fill:#ffffff"
       d="m 149.12603,87.718866 c -4.70642,0.006 -8.14856,1.28014 -11.44954,4.0764 l -2.76877,2.3513 -9.29468,0.25785 c -10.77409,0.30295 -13.34555,1.21897 -17.62552,6.286504 l -2.53547,3.00205 -5.961146,0.29468 c -7.19851,0.3514 -10.01926,1.49219 -10.3322,4.18691 -0.63796,5.49295 8.07472,10.36597 21.640546,12.10028 25.39491,3.24659 64.65159,16.84736 75.24155,26.07301 3.53071,3.07582 3.75153,4.18955 1.65756,8.28173 -3.88619,7.59467 -9.84215,11.71759 -22.8745,15.83903 -14.66572,4.63795 -20.63588,8.90004 -20.79336,14.84449 -0.1311,4.94894 4.37704,7.19449 10.61463,5.28582 1.32686,-0.40607 6.08556,-0.99084 10.57163,-1.3015 l 8.15281,-0.56481 13.94201,-6.79604 c 14.56243,-7.09474 19.26715,-8.88062 28.4489,-10.81107 7.00347,-1.4724 10.87706,-3.40469 16.73532,-8.34925 6.84782,-5.77972 19.96507,-6.79366 23.48844,-13.42021 l 1.5532,-0.48499 v -45.79814 l -3.8738,1.43043 c -18.47911,6.84276 -24.31153,6.14854 -47.38204,-5.672594 -19.45707,-9.96963 -25.9894,-11.49512 -43.00482,-10.04366 -1.51926,0.12974 -5.56321,-0.16611 -8.98158,-0.65689 -1.89133,-0.27152 -3.60038,-0.41318 -5.16917,-0.41133 z M 53.324424,124.40649 c -2.76333,-0.21731 -6.25098,2.95667 -11.68896,10.28924 -5.18536,6.99195 -11.11878,12.60514 -17.80356,16.84585 -7.27791,4.61699 -9.64365,5.08781 -33.3049299,6.62416 -14.0442601,0.91187 -27.6628001,2.33507 -33.5628101,3.5116 l -1.89698,0.38062 c -1.088297,30.85107 0.51568,51.14535 0.51568,51.14535 0.28484,-0.002 2.3807,-0.3145 4.65962,-0.69373 11.20776,-1.86625 16.836,-0.74173 24.33564,4.86222 12.8652901,9.61331 35.63537,17.70487 49.81928,17.70534 2.89387,6e-5 8.99127,0.61281 13.54911,1.35675 12.75967,2.08261 17.61326,1.31013 17.61326,-2.8056 0,-3.59657 -11.86451,-9.9126 -23.05869,-12.27218 -13.07036,-2.75509 -17.68691,-4.78672 -17.68691,-7.78445 0,-2.72631 2.48087,-2.81603 17.58255,-0.64461 31.4959,4.52882 65.977536,0.39361 65.977536,-7.91338 0,-3.7222 -2.35215,-4.50287 -12.401086,-4.11324 -24.69023,0.95742 -38.64834,-0.28861 -39.25379,-3.49932 -0.26457,-1.40294 0.44386,-1.65459 10.1726,-3.67122 18.24392,-3.78171 41.927736,-21.83745 38.050506,-29.00753 -1.72853,-3.19657 -5.448946,-2.4027 -13.143936,2.79946 -11.24038,7.59897 -21.33741,11.67255 -32.21218,12.9966 -10.74011,1.30761 -11.19371,-0.3941 -1.12346,-4.20533 13.5062,-5.11154 34.05561,-26.00335 31.35269,-31.87452 -2.15073,-4.67165 -6.58812,-3.33098 -16.74764,5.05867 -7.2209,5.96297 -13.18597,10.145 -17.52117,12.28446 -5.59099,2.75922 -17.49948,4.94719 -18.68146,1.93384 l -1.33834,-0.96385 1.47956,-2.96521 c 0.8136,-1.63028 4.09031,-6.03901 7.28103,-9.79811 11.90892,-14.03019 15.13336,-20.76795 11.60302,-24.26196 -0.80543,-0.79712 -1.64508,-1.24748 -2.56618,-1.31992 z"
       sodipodi:nodetypes="ccccscccsssssscccssccccscscssssccccsssssscscssssscsssccccss" />
  </g>
</svg>
